# Blender v2.91.0 OBJ File: 'pyr.blend'
# www.blender.org
mtllib pyr.mtl
o Box
v 9.762300 0.228398 9.762300
v 9.762300 0.228402 -9.762300
v -9.762300 0.228402 -9.762300
v -9.762300 0.228398 9.762300
v 0.055433 14.855930 -0.023620
v 0.055423 14.855929 -0.011534
v 0.043293 14.855929 -0.023694
v 0.043319 14.855930 -0.011503
v -9.654351 0.228398 9.762300
v 0.000000 0.228402 -9.762300
v 0.049363 14.855930 -0.023657
v 0.049371 14.855930 -0.011519
v 0.048629 14.857547 -0.022864
v 0.045956 14.857547 -0.020188
v 0.048623 14.857547 -0.020209
v 0.045939 14.857547 -0.022913
v 0.047289 14.857547 -0.020199
v 0.047284 14.857547 -0.022888
vt 0.000000 0.000000
vt 0.000000 0.000000
vt 0.000000 0.000000
vt 0.000000 0.000000
vt 0.000000 0.000000
vt 0.000000 0.000000
vt 0.000000 0.500000
vt 0.000000 0.000000
vt 1.000000 0.000000
vt 1.000000 0.500000
vt 0.500000 1.000000
vt 0.500000 0.000000
vt 1.000000 1.000000
vt 0.000000 0.500000
vt 0.000000 0.000000
vt 1.000000 0.000000
vt 1.000000 0.500000
vt 0.500000 0.500000
vt 0.500000 0.000000
vt 1.000000 0.000000
vt 1.000000 0.500000
vt 0.500000 0.750000
vt 0.500000 0.500000
vt 1.000000 0.500000
vt 1.000000 0.750000
vt 0.500000 0.750000
vt 1.000000 0.750000
vt 0.000000 0.750000
vt 1.000000 0.750000
vt 0.000000 0.750000
vt 1.000000 0.750000
vt 0.000000 0.750000
vt 0.000000 0.500000
vt 0.000000 0.750000
vt 0.000000 0.500000
vt 0.000000 1.000000
vt 0.000000 0.000000
vt 1.000000 0.000000
vt 0.000000 0.000000
vn 0.0000 1.0000 -0.0005
vn 0.7289 0.6846 0.0003
vn 0.8285 0.5599 0.0001
vn 0.6325 0.7746 0.0003
vn 0.0000 -1.0000 -0.0000
vn -0.7309 0.6825 0.0009
vn -0.8264 0.5631 0.0002
vn -0.8017 0.5977 0.0007
vn -0.0024 0.8319 0.5549
vn 0.0003 0.5619 0.8272
vn 0.0002 0.5621 0.8270
vn 0.0008 0.7299 0.6835
vn 0.0219 0.4337 -0.9008
vn 0.0046 0.4928 -0.8701
vn 0.0030 0.5192 -0.8546
vn 0.0178 0.4284 -0.9034
vn 0.0069 0.9831 0.1830
vn 0.0051 0.9835 0.1811
vn -0.5206 0.8538 0.0050
vn -0.5189 0.8548 0.0043
vn 0.2307 0.9730 0.0017
vn 0.2311 0.9729 0.0019
vn 0.0052 0.9829 0.1841
vn 0.0008 0.7710 0.6369
vn 0.0148 0.4503 -0.8928
vn 0.0024 0.5326 -0.8464
vn 0.0003 0.5618 0.8273
vn 0.0005 0.5609 -0.8279
vn 0.0005 0.5605 -0.8282
vn 0.0005 0.5612 -0.8277
usemtl architecture_jpg_material
s off
f 14/1/1 17/2/1 15/3/1 13/4/1 18/5/1 16/6/1
s 1
f 6/7/2 1/8/3 2/9/3 5/10/4
f 9/11/5 10/12/5 2/9/5 1/13/5
f 7/14/6 3/15/7 4/16/7 8/17/8
f 12/18/9 9/19/10 1/20/11 6/21/12
f 18/22/13 11/23/14 7/24/15 16/25/16
f 17/26/17 12/18/9 6/21/12 15/27/18
f 16/28/19 7/14/6 8/17/8 14/29/20
f 15/30/21 6/7/2 5/10/4 13/31/22
f 14/32/23 8/33/24 12/18/9 17/26/17
f 13/34/25 5/35/26 11/23/14 18/22/13
f 4/36/5 3/15/5 10/12/5 9/11/5
f 8/33/24 4/37/27 9/19/10 12/18/9
f 10/12/28 3/38/29 7/24/15 11/23/14 5/35/26 2/39/30
